arm26_elbow_motion
version=1
nRows=380
nColumns=2
inDegrees=no
endheader
time	r_elbow_flex
21.669308	0.53177427
21.674954	0.53263331
21.699934	0.53340079
21.724153	0.53411134
21.737813	0.53485831
21.785555	0.53562696
21.791320	0.53652958
21.805765	0.53763494
21.823528	0.53906417
21.840517	0.54075077
21.856062	0.54268110
21.872422	0.54478201
21.882350	0.54727198
21.890656	0.55036008
21.906957	0.55428720
21.917002	0.55913698
21.937714	0.56475034
21.953939	0.57108129
21.973208	0.57880659
21.978927	0.58867727
22.004642	0.60156980
22.021166	0.61655618
22.041086	0.63279029
22.073017	0.65102540
22.087614	0.67139546
22.104143	0.69350107
22.134327	0.71616168
22.141418	0.73850808
22.154074	0.76147574
22.169800	0.78561976
22.185516	0.81151918
22.194704	0.83995803
22.237510	0.87068972
22.254197	0.90404772
22.270872	0.93981007
22.286511	0.97793481
22.291760	1.01907186
22.306849	1.06241585
22.337439	1.10674928
22.354249	1.15164585
22.362261	1.19697441
22.378061	1.24326512
22.390641	1.28991919
22.405246	1.33564645
22.413263	1.38013840
22.446729	1.42381882
22.456659	1.46696046
22.464091	1.50918596
22.479799	1.55000439
22.486811	1.58966595
22.538469	1.62868597
22.555026	1.66654016
22.563517	1.70290712
22.572080	1.73763532
22.588346	1.77051390
22.596622	1.80154233
22.609384	1.82976733
22.637278	1.85481160
22.654711	1.87731877
22.671314	1.89790297
22.678918	1.91644840
22.704572	1.93354691
22.720591	1.94963629
22.727826	1.96648209
22.737394	1.98499926
22.771805	2.00452666
22.788430	2.02402332
22.804734	2.04335718
22.869525	2.06296034
22.887262	2.08547155
22.895399	2.10714713
22.903925	2.12751687
22.912356	2.14719680
22.939515	2.16703881
22.956120	2.18766029
22.961780	2.20850890
22.986021	2.22607577
23.005250	2.24251418
23.021157	2.25774269
23.037378	2.27126672
23.051613	2.28213028
23.060198	2.28958311
23.084198	2.29315398
23.100089	2.29285540
23.116000	2.28933105
23.139766	2.28251028
23.148419	2.27250361
23.158952	2.25981153
23.174730	2.24514610
23.184553	2.22886301
23.192267	2.21122622
23.257497	2.19226907
23.274817	2.17263518
23.281334	2.15220351
23.291022	2.13109060
23.306572	2.10828569
23.325414	2.08461618
23.342057	2.06125089
23.349206	2.03851636
23.375848	2.01491343
23.390037	1.99053169
23.405806	1.96588134
23.415341	1.94356895
23.440528	1.92260659
23.448060	1.89970255
23.455971	1.87478968
23.464364	1.85140883
23.476675	1.82971507
23.492678	1.80749689
23.510131	1.78173515
23.522761	1.75374401
23.529225	1.72634129
23.589300	1.70025455
23.597790	1.67047426
23.608040	1.63625337
23.650337	1.60306546
23.657986	1.57195764
23.676645	1.53938528
23.708007	1.50300831
23.714659	1.46432654
23.729323	1.42833209
23.786965	1.39425842
23.808850	1.35600080
23.831729	1.31336656
23.847729	1.27344628
23.853564	1.23090245
23.870151	1.17805195
23.877501	1.12666029
23.901886	1.07862109
23.920292	1.03269859
23.928725	0.98956963
23.957244	0.94817530
23.971824	0.91726336
23.984569	0.90175423
24.005085	0.88693889
24.021750	0.87183010
24.030133	0.85986322
24.038407	0.85131831
24.047386	0.84279750
24.056859	0.83277701
24.071624	0.82169272
24.081891	0.81034538
24.097925	0.79983317
24.107478	0.79026717
24.130160	0.78110181
24.142627	0.77342585
24.180822	0.76823982
24.205661	0.76528825
24.222326	0.76362278
24.227656	0.76312481
24.255855	0.76475205
24.260850	0.76922196
24.271770	0.77511777
24.278539	0.78087567
24.305689	0.78733635
24.322271	0.79562593
24.327235	0.80571106
24.351680	0.81714520
24.367458	0.82972227
24.388421	0.84309728
24.403630	0.85690117
24.422452	0.87140473
24.437894	0.88762942
24.446177	0.90616426
24.475828	0.92630982
24.486775	0.94715024
24.511777	0.96976490
24.521292	0.99578297
24.538927	1.02556092
24.557131	1.05764762
24.562831	1.09094601
24.571609	1.12593079
24.589695	1.16288123
24.622196	1.20185930
24.627953	1.24172833
24.639892	1.28164334
24.655658	1.32171282
24.663321	1.36188179
24.672780	1.40108349
24.719993	1.43916672
24.737017	1.47571867
24.745172	1.51117305
24.788182	1.54473745
24.807789	1.57595184
24.848789	1.60676043
24.873621	1.63915030
24.882701	1.67725465
24.907829	1.71566900
24.914387	1.75402045
24.923419	1.79480374
24.941325	1.83736690
24.955882	1.87879029
24.961615	1.91855577
24.988711	1.95395052
24.996334	1.98969058
25.009156	2.02519166
25.047547	2.05753161
25.067317	2.08786729
25.088911	2.11816011
25.105861	2.14756323
25.121676	2.17410706
25.128320	2.19822683
25.139115	2.22055262
25.153337	2.24159642
25.161061	2.26096002
25.188670	2.27774055
25.194103	2.29216097
25.203401	2.30470889
25.217580	2.31554144
25.241251	2.32453703
25.256963	2.33183043
25.272116	2.33760619
25.289548	2.34166868
25.305614	2.34368398
25.314646	2.34380741
25.337312	2.34193984
25.345734	2.33803746
25.354377	2.33192952
25.365044	2.32330670
25.391280	2.31228381
25.405689	2.29870124
25.413249	2.28277095
25.426187	2.26446763
25.439591	2.24375974
25.472847	2.22086398
25.479934	2.19609217
25.499007	2.17020354
25.520158	2.14382680
25.553192	2.11623965
25.569056	2.08847664
25.592826	2.06197381
25.604762	2.03732063
25.620008	2.01210641
25.629870	1.98606404
25.641943	1.96059261
25.654654	1.93736142
25.663086	1.91458720
25.688505	1.88897723
25.696704	1.85917397
25.741174	1.83075386
25.757271	1.80493674
25.763247	1.77722201
25.789007	1.74658262
25.804156	1.71215384
25.821953	1.68004039
25.837318	1.65246682
25.848051	1.62515980
25.858824	1.59362487
25.871831	1.56071653
25.886497	1.53017121
25.895081	1.50248105
25.938863	1.47228835
25.944746	1.43821667
25.985108	1.40228524
25.993840	1.36765471
26.020980	1.33178588
26.036517	1.29066540
26.044071	1.24935976
26.054459	1.21073293
26.070581	1.17276746
26.076930	1.13516980
26.092492	1.09989143
26.130414	1.07074281
26.157081	1.04842668
26.172524	1.02949247
26.203023	1.01212905
26.212811	0.99677884
26.222146	0.98284799
26.237851	0.96949785
26.257668	0.95602036
26.264520	0.94224060
26.289530	0.92836525
26.305561	0.91547585
26.316027	0.90559563
26.340291	0.89904198
26.347400	0.89494152
26.372427	0.89298096
26.389753	0.89299767
26.397831	0.89462392
26.406073	0.89745441
26.421462	0.90094735
26.438978	0.90501588
26.473270	0.91009436
26.490247	0.91621405
26.505316	0.92308840
26.513442	0.93082035
26.522401	0.93963630
26.538019	0.94991066
26.558805	0.96267259
26.563904	0.97584010
26.572788	0.98915352
26.581027	1.00506931
26.591262	1.02589301
26.614193	1.05130219
26.640238	1.07949913
26.652840	1.10813353
26.674290	1.13895938
26.690114	1.17370359
26.704011	1.21087053
26.713416	1.24739415
26.731237	1.28267635
26.758239	1.31813413
26.764819	1.35471173
26.772075	1.39275136
26.791210	1.43120604
26.838375	1.46911431
26.857415	1.50674381
26.889357	1.54467046
26.907089	1.58368990
26.924970	1.62291405
26.927517	1.66136816
26.948899	1.69870262
26.986786	1.73617959
26.997878	1.77443142
27.013608	1.81202641
27.038540	1.84791136
27.054280	1.88338189
27.068185	1.91875928
27.088012	1.95332191
27.095946	1.98501424
27.113154	2.01311845
27.121598	2.03907567
27.130843	2.06410671
27.139692	2.08878916
27.153749	2.11210622
27.163584	2.13469416
27.171406	2.15742312
27.187662	2.18039033
27.196936	2.20377175
27.212793	2.22616730
27.223806	2.24618610
27.254051	2.26453945
27.272000	2.28080243
27.283301	2.29568610
27.335794	2.30919860
27.352873	2.32042950
27.366767	2.32998702
27.371267	2.33792527
27.388958	2.34416835
27.402426	2.34865320
27.417944	2.35055514
27.427466	2.34974666
27.471807	2.34651316
27.495912	2.34063965
27.514809	2.33261671
27.538962	2.32268340
27.555446	2.31097094
27.572165	2.29755034
27.585689	2.28267559
27.602769	2.26636446
27.620078	2.24873197
27.639524	2.22967983
27.652830	2.20891279
27.669694	2.18624693
27.685567	2.16250301
27.703750	2.13803166
27.711820	2.11240880
27.721149	2.08598799
27.737140	2.05967666
27.753836	2.03456187
27.785566	2.01041841
27.818977	1.98631900
27.829149	1.95830269
27.838232	1.93132969
27.848029	1.90507274
27.855851	1.87838956
27.867615	1.85129688
27.875782	1.82456869
27.885854	1.79860194
27.904076	1.77712201
27.914024	1.75481179
27.938037	1.73334942
27.954260	1.71153872
27.970381	1.68860282
27.977597	1.66331685
28.046846	1.63806520
28.073233	1.61518293
28.088588	1.59307212
28.107809	1.56755045
28.115831	1.53958956
